<svg width="1000" height="1000" viewBox="0 0 1000 1000" fill="none" xmlns="http://www.w3.org/2000/svg">
<rect width="1000" height="1000" rx="500" fill="#020818"/>
<path d="M499.638 955.3C373.897 955.3 279.365 903.501 225.445 863.853C208.918 851.703 217.706 825.822 238.247 825.894C238.572 825.894 238.934 825.894 239.26 825.894C412.411 825.894 564.732 689.155 564.732 502.379C564.732 383.649 663.568 308.271 760.016 308.271C856.464 308.271 955.3 384.656 955.3 502.379C955.3 736.101 766.453 955.3 499.638 955.3Z" fill="#2369FF"/>
<path opacity="0.3" d="M335.125 906.314C179.861 818.194 481.821 846.617 553.397 608.08C573.496 549.032 563.7 483.701 588.354 426.64C642.47 291.788 843.463 274.959 919.233 399.157C1064.12 721.805 640.121 1071.18 335.125 906.314Z" fill="white"/>
<path opacity="0.3" d="M361.58 903.415C238.148 845.628 539.472 766.603 558.925 602.052C575.996 547.768 569.825 488.174 590.794 435.443C638.975 303.795 831.376 280.427 908.9 397.664C1061.02 699.063 651.571 1061.43 361.58 903.415Z" fill="white"/>
<path opacity="0.3" d="M412.559 909.355C272.436 854.78 544.021 758.575 571.307 587.815C584.714 536.939 581.525 481.493 603.556 433.083C714.799 224.429 977.579 358.165 933.408 572.476C902.21 805.753 641.676 998.561 412.559 909.355Z" fill="white"/>
<path opacity="0.3" d="M413.456 855.608C413.456 855.608 413.456 855.428 413.456 855.356C414.764 842.681 419.378 830.509 426.971 820.247C451.133 787.694 484.195 760.399 508.102 727.738C537.749 687.227 560.566 642.287 574.372 594.106C603.475 492.595 601.258 366.489 734.635 344.631C867.539 322.845 937.37 448.375 922.946 562.453C909.576 668.034 850.826 766.376 766.535 831.662C682.243 896.947 559.839 937.386 457.273 900.836C445.683 896.695 434.601 891.906 425.119 884.2C423.375 882.796 421.885 881.175 420.504 879.411C420.468 879.375 420.432 879.303 420.395 879.267C415.091 872.569 412.584 864.107 413.456 855.644V855.608Z" fill="white"/>
<path opacity="0.3" d="M471.348 874.562C467.833 872.246 461.485 863.813 460.767 861.968C459.62 859.036 457.324 853.825 457.324 849.084C457.324 844.343 457.324 842.751 458.616 837.142C472.711 793.967 508.361 757.958 531.818 719.416C553.229 684.204 570.337 646.422 582.388 606.903C611.045 512.99 608.678 390.271 726.82 363.165C844.961 336.059 915.868 448.971 907.153 554.319C898.868 654.203 846.073 749.418 770.361 813.401C701.283 871.775 555.704 939.667 471.42 874.489L471.348 874.562Z" fill="white"/>
<path opacity="0.3" d="M517.348 848.802C512.104 844.512 508.063 838.562 505.951 832.072C497.466 791.075 536.137 743.985 553.797 708.938C571.457 673.891 586.022 638.916 596.982 601.849C621.306 519.64 627.569 410.28 728.323 384.21C844.443 354.175 905.034 471.071 892.763 568.244C881.73 655.394 833.701 737.459 766.046 793.635C710.845 839.5 584.602 905.267 517.311 848.802H517.348Z" fill="white"/>
<path opacity="0.3" d="M568.339 815.148C535.131 771.992 599.647 662.735 613.238 616.986C631.922 554.091 640.278 471.634 699.271 431.937C778.238 378.804 859.752 447.751 866.53 531.18C872.375 603.154 840.566 677.217 795.667 731.755C751.234 785.717 651.897 861.185 578.022 822.929L575.834 821.704C572.93 820.047 570.383 817.813 568.339 815.148Z" fill="white"/>
<path opacity="0.3" d="M624.744 753.099C610.318 713.2 631.884 660.574 642.595 621.783C655.073 576.628 666.289 521.749 701.163 487.606C749.56 440.199 816.205 469.373 830.018 531.653C841.594 583.779 821.543 641.697 792.043 684.635C762.435 727.68 713.208 771.798 657.706 772.37C657.706 772.37 648.149 771.619 644.579 770.153C641.008 768.687 636.14 766.971 633.327 764.218C633.327 764.218 627.485 759.177 624.744 753.171V753.099Z" fill="white"/>
<path d="M499.701 44.0388C625.441 44.0388 719.973 96.1083 773.893 135.964C790.42 148.178 781.632 174.194 761.091 174.122C760.766 174.122 760.404 174.122 760.079 174.122C586.927 174.122 434.606 311.577 434.606 499.331C434.606 618.682 335.771 694.456 239.322 694.456C142.874 694.456 44.0386 617.67 44.0386 499.331C44.0386 264.386 232.885 44.0388 499.701 44.0388Z" fill="#2369FF"/>
<path opacity="0.3" d="M664.439 96.412C818.902 184.532 518.5 156.109 447.292 394.646C427.296 453.694 437.042 519.025 412.515 576.086C358.678 710.938 158.721 727.767 83.3417 603.569C-60.7999 280.921 361.016 -68.4511 664.439 96.412Z" fill="white"/>
<path opacity="0.3" d="M637.759 99.1013C761.19 156.573 459.866 235.166 440.413 398.818C423.342 452.805 429.514 512.073 408.545 564.516C360.363 695.445 167.962 718.685 90.4385 602.089C-61.6851 302.337 347.767 -58.0486 637.759 99.1013Z" fill="white"/>
<path opacity="0.3" d="M587.019 93.2462C726.302 147.515 456.343 243.179 429.221 412.979C415.894 463.57 419.064 518.704 397.165 566.842C286.588 774.325 25.3815 641.34 69.2881 428.232C100.3 196.266 359.273 4.5415 587.019 93.2462Z" fill="white"/>
<path opacity="0.3" d="M585.883 143.73C585.883 143.73 585.883 143.91 585.883 143.982C584.575 156.658 579.96 168.829 572.367 179.092C548.206 211.644 515.143 238.94 491.237 271.601C461.589 312.111 438.773 357.052 424.966 405.233C395.864 506.744 398.08 632.85 264.704 654.708C131.8 676.494 61.9686 550.964 76.3925 436.885C89.7629 331.305 148.512 232.962 232.804 167.677C317.095 102.391 439.499 61.9522 542.066 98.502C553.656 102.643 564.737 107.432 574.22 115.138C575.964 116.543 577.454 118.163 578.834 119.928C578.871 119.964 578.907 120.036 578.943 120.072C584.248 126.77 586.755 135.232 585.883 143.694V143.73Z" fill="white"/>
<path opacity="0.3" d="M531.273 124.777C534.814 127.093 541.21 135.525 541.933 137.371C543.089 140.302 545.402 145.513 545.402 150.254C545.402 154.995 545.402 156.587 544.101 162.197C529.9 205.371 493.981 241.38 470.348 279.922C448.775 315.135 431.539 352.917 419.397 392.436C390.525 486.348 392.91 609.067 273.88 636.174C154.85 663.28 83.4102 550.368 92.1911 445.019C100.538 345.136 153.73 249.921 230.012 185.937C299.608 127.563 446.282 59.6713 531.2 124.849L531.273 124.777Z" fill="white"/>
<path opacity="0.3" d="M482.1 150.537C487.298 154.827 491.305 160.777 493.398 167.267C501.809 208.264 463.474 255.354 445.968 290.401C428.461 325.448 414.023 360.423 403.158 397.49C379.046 479.699 372.837 589.059 272.959 615.128C157.849 645.164 97.7853 528.268 109.95 431.095C120.887 343.945 168.497 261.88 235.564 205.703C290.286 159.839 415.431 94.0717 482.136 150.537H482.1Z" fill="white"/>
<path opacity="0.3" d="M434.284 184.191C467.856 227.346 402.632 336.603 388.891 382.352C370.002 445.248 361.554 527.704 301.913 567.401C222.078 620.535 139.668 551.587 132.816 468.158C126.906 396.185 159.065 322.122 204.458 267.583C249.379 213.621 349.807 138.153 424.494 176.41L426.706 177.634C429.643 179.291 432.217 181.525 434.284 184.191Z" fill="white"/>
<path opacity="0.3" d="M374.595 246.45C389.02 286.788 367.454 339.993 356.743 379.21C344.265 424.861 333.049 480.343 298.176 514.861C249.779 562.789 183.133 533.295 169.321 470.331C157.744 417.632 177.796 359.077 207.296 315.668C236.904 272.149 286.131 227.547 341.632 226.968C341.632 226.968 351.189 227.727 354.76 229.209C358.33 230.691 363.198 232.426 366.011 235.209C366.011 235.209 371.854 240.306 374.595 246.378V246.45Z" fill="white"/>
</svg>
